:FULLY-SPECIFIED
:FORCE-ALL-JOINTS-BE-3DOF
:DEGREES
2854
root -6.09106 13.2691 -28.8166 1240.9 -66.6288 -159.235
lfemur -65.6765 44.9679 -5.55331
ltibia 77.0763 0 0
lfoot -4.74448 -6.1473 0
ltoes -29.4221 0 0
rfemur -31.2415 -19.2 22.2491
rtibia 88.7594 0 0
rfoot -41.0441 -28.6138 0
rtoes -13.5556 0 0
lowerback 15.7213 5.67196 0.904027
upperback -4.48796 8.03769 1.65386
thorax -13.9827 3.72544 -0.867756
lowerneck -2.51521 9.63381 2.20087
upperneck 9.08943 12.5423 2.09439
head 3.37155 6.33698 0.77143
lclavicle -7.1637e-14 2.78299e-15 0
lhumerus 5.45566 12.217 84.2373
lradius 93.611 0 0
lwrist -19.2501 0 0
lhand -39.4373 388.19 0
lfingers 7.12502 0 0
lthumb -12.4253 -662.199 0
rclavicle -7.1637e-14 2.78299e-15 0
rhumerus -59.0778 50.9298 -111.51
rradius 113.583 0 0
rwrist -83.7621 0 0
rhand 7.9787 -385.874 0
rfingers 7.12502 0 0
rthumb 33.2068 307.17 0
2855
root -6.09253 13.2651 -28.815 1240.78 -66.6527 -159.075
lfemur -65.7045 44.966 -5.55314
ltibia 77.1228 0 0
lfoot -4.79068 -6.17955 0
ltoes -29.4385 0 0
rfemur -31.2738 -19.1852 22.2747
rtibia 88.7969 0 0
rfoot -41.0353 -28.6653 0
rtoes -13.487 0 0
lowerback 15.7069 5.6403 0.983034
upperback -4.49673 8.01236 1.66266
thorax -13.9742 3.70758 -0.893024
lowerneck -2.52307 9.63262 2.19849
upperneck 9.11441 12.5401 2.09344
head 3.38164 6.33572 0.772945
lclavicle 9.57397e-14 1.19271e-15 0
lhumerus 5.50316 12.2867 84.2231
lradius 93.5499 0 0
lwrist -19.3135 0 0
lhand -39.4641 387.98 0
lfingers 7.12502 0 0
lthumb -12.4512 -662.411 0
rclavicle 9.57397e-14 1.19271e-15 0
rhumerus -59.1218 50.9971 -111.593
rradius 113.56 0 0
rwrist -83.6968 0 0
rhand 8.124 -385.968 0
rfingers 7.12502 0 0
rthumb 33.3449 307.105 0
2856
root -6.09322 13.2624 -28.8137 1240.73 -66.7042 -158.979
lfemur -65.7221 44.9648 -5.55303
ltibia 77.1704 0 0
lfoot -4.83632 -6.21142 0
ltoes -29.4441 0 0
rfemur -31.3067 -19.1701 22.3008
rtibia 88.8355 0 0
rfoot -41.0258 -28.7217 0
rtoes -13.4183 0 0
lowerback 15.6969 5.6177 1.03436
upperback -4.51268 7.99174 1.65318
thorax -13.9778 3.69297 -0.925572
lowerneck -2.51992 9.62416 2.24297
upperneck 9.13048 12.5292 2.05396
head 3.39278 6.33016 0.753994
lclavicle -2.76683e-14 6.36111e-15 0
lhumerus 5.55826 12.2511 84.175
lradius 93.4596 0 0
lwrist -19.2532 0 0
lhand -39.3947 387.955 0
lfingers 7.12502 0 0
lthumb -12.3843 -662.432 0
rclavicle -2.76683e-14 6.36111e-15 0
rhumerus -59.1506 51.0403 -111.631
rradius 113.571 0 0
rwrist -83.6644 0 0
rhand 8.1019 -385.95 0
rfingers 7.12502 0 0
rthumb 33.3239 307.118 0
2857
root -6.09392 13.2596 -28.8131 1240.66 -66.7331 -158.876
lfemur -65.7282 44.9644 -5.55299
ltibia 77.2186 0 0
lfoot -4.88087 -6.24252 0
ltoes -29.4584 0 0
rfemur -31.3397 -19.1548 22.3271
rtibia 88.8747 0 0
rfoot -41.0156 -28.7821 0
rtoes -13.3506 0 0
lowerback 15.6798 5.60624 1.06061
upperback -4.51975 7.98291 1.6644
thorax -13.9738 3.68739 -0.923678
lowerneck -2.54576 9.62974 2.25375
upperneck 9.16399 12.536 2.03988
head 3.41119 6.33341 0.751245
lclavicle -2.9122e-14 1.19271e-15 0
lhumerus 5.59618 12.2531 84.1984
lradius 93.3981 0 0
lwrist -19.2015 0 0
lhand -39.4545 388.085 0
lfingers 7.12502 0 0
lthumb -12.4419 -662.305 0
rclavicle -2.9122e-14 1.19271e-15 0
rhumerus -59.1743 51.0736 -111.643
rradius 113.575 0 0
rwrist -83.6537 0 0
rhand 8.0662 -385.926 0
rfingers 7.12502 0 0
rthumb 33.29 307.135 0
2858
root -6.09372 13.2565 -28.8117 1240.6 -66.7614 -158.797
lfemur -65.731 44.9647 -5.55484
ltibia 77.2668 0 0
lfoot -4.92378 -6.27247 0
ltoes -29.4997 0 0
rfemur -31.3726 -19.1397 22.3532
rtibia 88.9141 0 0
rfoot -41.0048 -28.8458 0
rtoes -13.2848 0 0
lowerback 15.6882 5.58521 1.06748
upperback -4.51262 7.95913 1.69128
thorax -13.974 3.67709 -0.891822
lowerneck -2.53288 9.6287 2.23076
upperneck 9.12378 12.54 2.0099
head 3.39523 6.33364 0.743133
lclavicle 1.54679e-14 1.47101e-14 0
lhumerus 5.64139 12.3492 84.2448
lradius 93.3476 0 0
lwrist -19.1331 0 0
lhand -39.4688 387.973 0
lfingers 7.12502 0 0
lthumb -12.4557 -662.419 0
rclavicle 1.54679e-14 1.47101e-14 0
rhumerus -59.2142 51.1729 -111.656
rradius 113.598 0 0
rwrist -83.6776 0 0
rhand 7.97109 -385.932 0
rfingers 7.12502 0 0
rthumb 33.1995 307.11 0
2859
root -6.09359 13.254 -28.8112 1240.6 -66.781 -158.786
lfemur -65.7392 44.9657 -5.56024
ltibia 77.3144 0 0
lfoot -4.96449 -6.30089 0
ltoes -29.5657 0 0
rfemur -31.4049 -19.1249 22.3788
rtibia 88.9533 0 0
rfoot -40.9936 -28.9119 0
rtoes -13.2219 0 0
lowerback 15.6935 5.59617 1.08366
upperback -4.51118 7.97703 1.68876
thorax -13.9727 3.68382 -0.908731
lowerneck -2.53452 9.62403 2.22431
upperneck 9.1073 12.5367 1.98678
head 3.39101 6.33101 0.73623
lclavicle -9.07452e-14 -3.18055e-14 0
lhumerus 5.69771 12.3615 84.3271
lradius 93.3045 0 0
lwrist -19.0762 0 0
lhand -39.4375 387.979 0
lfingers 7.12502 0 0
lthumb -12.4255 -662.411 0
rclavicle -9.07452e-14 -3.18055e-14 0
rhumerus -59.1784 51.1458 -111.595
rradius 113.597 0 0
rwrist -83.6699 0 0
rhand 7.92172 -385.873 0
rfingers 7.12502 0 0
rthumb 33.1526 307.159 0
2860
root -6.09353 13.2502 -28.8107 1240.67 -66.8001 -158.846
lfemur -65.7523 44.9672 -5.56893
ltibia 77.3609 0 0
lfoot -5.00247 -6.3274 0
ltoes -29.654 0 0
rfemur -31.436 -19.1106 22.4036
rtibia 88.9919 0 0
rfoot -40.9822 -28.9797 0
rtoes -13.1628 0 0
lowerback 15.6965 5.60088 1.04487
upperback -4.51035 7.97518 1.68676
thorax -13.9789 3.68607 -0.889639
lowerneck -2.54178 9.63205 2.21516
upperneck 9.10343 12.547 1.99802
head 3.38955 6.33632 0.741794
lclavicle -9.15652e-15 -1.70955e-14 0
lhumerus 5.71432 12.38 84.327
lradius 93.2738 0 0
lwrist -18.9721 0 0
lhand -39.3605 387.79 0
lfingers 7.12502 0 0
lthumb -12.3513 -662.595 0
rclavicle -9.15652e-15 -1.70955e-14 0
rhumerus -59.197 51.1627 -111.593
rradius 113.604 0 0
rwrist -83.709 0 0
rhand 7.80569 -385.934 0
rfingers 7.12502 0 0
rthumb 33.0423 307.075 0
2861
root -6.093 13.2483 -28.8093 1240.78 -66.8232 -158.976
lfemur -65.77 44.9692 -5.58065
ltibia 77.4057 0 0
lfoot -5.03716 -6.35162 0
ltoes -29.7622 0 0
rfemur -31.4657 -19.097 22.4272
rtibia 89.0294 0 0
rfoot -40.9705 -29.0482 0
rtoes -13.1085 0 0
lowerback 15.7125 5.60557 0.978502
upperback -4.50008 7.96772 1.68615
thorax -13.986 3.68811 -0.853298
lowerneck -2.52387 9.64085 2.21309
upperneck 9.06355 12.5599 2.00202
head 3.37184 6.34287 0.741085
lclavicle 1.31508e-13 3.02153e-14 0
lhumerus 5.73149 12.4332 84.3581
lradius 93.2606 0 0
lwrist -18.9475 0 0
lhand -39.344 387.95 0
lfingers 7.12502 0 0
lthumb -12.3353 -662.433 0
rclavicle 1.31508e-13 3.02153e-14 0
rhumerus -59.2217 51.2134 -111.588
rradius 113.604 0 0
rwrist -83.7367 0 0
rhand 7.75405 -385.93 0
rfingers 7.12502 0 0
rthumb 32.9931 307.068 0
2862
root -6.09281 13.2459 -28.8076 1240.81 -66.836 -159.009
lfemur -65.7919 44.9717 -5.59515
ltibia 77.4481 0 0
lfoot -5.06801 -6.37316 0
ltoes -29.8881 0 0
rfemur -31.4935 -19.0842 22.4493
rtibia 89.0654 0 0
rfoot -40.9589 -29.1168 0
rtoes -13.0599 0 0
lowerback 15.7416 5.61126 0.98848
upperback -4.49998 7.97762 1.68142
thorax -14.0014 3.69088 -0.869691
lowerneck -2.51925 9.65502 2.14446
upperneck 9.04122 12.5767 2.08144
head 3.35236 6.35204 0.775539
lclavicle 6.25675e-14 6.75868e-15 0
lhumerus 5.73742 12.4401 84.3765
lradius 93.2594 0 0
lwrist -18.9906 0 0
lhand -39.3768 388.014 0
lfingers 7.12502 0 0
lthumb -12.367 -662.372 0
rclavicle 6.25675e-14 6.75868e-15 0
rhumerus -59.2225 51.2229 -111.562
rradius 113.594 0 0
rwrist -83.7546 0 0
rhand 7.81078 -385.992 0
rfingers 7.12502 0 0
rthumb 33.0471 307.018 0
2863
root -6.09309 13.2413 -28.8043 1240.81 -66.832 -159.015
lfemur -65.8177 44.9747 -5.61218
ltibia 77.4878 0 0
lfoot -5.09449 -6.39164 0
ltoes -30.0292 0 0
rfemur -31.519 -19.0725 22.4695
rtibia 89.0994 0 0
rfoot -40.9475 -29.1846 0
rtoes -13.018 0 0
lowerback 15.781 5.61527 1.03648
upperback -4.50873 7.99179 1.66036
thorax -14.0252 3.69108 -0.927488
lowerneck -2.52849 9.65764 2.15896
upperneck 9.0702 12.5734 2.13704
head 3.36119 6.35284 0.792215
lclavicle -2.11209e-15 -2.70347e-14 0
lhumerus 5.73725 12.4483 84.3734
lradius 93.2482 0 0
lwrist -19.0637 0 0
lhand -39.3128 388.244 0
lfingers 7.12502 0 0
lthumb -12.3053 -662.138 0
rclavicle -2.11209e-15 -2.70347e-14 0
rhumerus -59.2334 51.2228 -111.576
rradius 113.588 0 0
rwrist -83.8107 0 0
rhand 7.75505 -385.903 0
rfingers 7.12502 0 0
rthumb 32.9941 307.095 0
2864
root -6.09361 13.2403 -28.8017 1240.87 -66.8391 -159.085
lfemur -65.8469 44.978 -5.63149
ltibia 77.524 0 0
lfoot -5.11603 -6.40668 0
ltoes -30.1833 0 0
rfemur -31.5417 -19.0621 22.4875
rtibia 89.131 0 0
rfoot -40.9363 -29.2507 0
rtoes -12.9838 0 0
lowerback 15.8073 5.63907 1.08146
upperback -4.52089 8.02843 1.61117
thorax -14.0407 3.7008 -1.01961
lowerneck -2.53537 9.63129 2.26292
upperneck 9.11245 12.5322 2.11567
head 3.38636 6.33481 0.770401
lclavicle -2.67738e-14 -1.47101e-14 0
lhumerus 5.72753 12.3574 84.3474
lradius 93.2351 0 0
lwrist -19.1241 0 0
lhand -39.2514 387.89 0
lfingers 7.12502 0 0
lthumb -12.2461 -662.489 0
rclavicle -2.67738e-14 -1.47101e-14 0
rhumerus -59.242 51.155 -111.608
rradius 113.558 0 0
rwrist -83.7905 0 0
rhand 8.02275 -386.115 0
rfingers 7.12502 0 0
rthumb 33.2487 306.937 0
2865
root -6.0945 13.2392 -28.8005 1240.87 -66.9145 -159.073
lfemur -65.8792 44.9817 -5.65282
ltibia 77.5561 0 0
lfoot -5.1321 -6.4179 0
ltoes -30.3479 0 0
rfemur -31.5612 -19.0531 22.503
rtibia 89.1599 0 0
rfoot -40.9255 -29.3144 0
rtoes -12.9582 0 0
lowerback 15.8104 5.61117 1.08119
upperback -4.51933 7.99185 1.62026
thorax -14.0424 3.68431 -0.999663
lowerneck -2.57023 9.64276 2.21848
upperneck 9.16262 12.5454 2.14951
head 3.40474 6.34128 0.792438
lclavicle -4.01421e-14 -9.93923e-15 0
lhumerus 5.72203 12.3924 84.321
lradius 93.2095 0 0
lwrist -19.1998 0 0
lhand -39.3486 388.049 0
lfingers 7.12502 0 0
lthumb -12.3398 -662.336 0
rclavicle -4.01421e-14 -9.93923e-15 0
rhumerus -59.2682 51.2084 -111.622
rradius 113.545 0 0
rwrist -83.7652 0 0
rhand 7.91696 -385.861 0
rfingers 7.12502 0 0
rthumb 33.1481 307.17 0
2866
root -6.09555 13.237 -28.7961 1240.8 -66.8768 -158.947
lfemur -65.9141 44.9857 -5.67592
ltibia 77.5838 0 0
lfoot -5.14214 -6.42491 0
ltoes -30.5208 0 0
rfemur -31.5772 -19.0458 22.5157
rtibia 89.1855 0 0
rfoot -40.9153 -29.3748 0
rtoes -12.9421 0 0
lowerback 15.7997 5.61018 1.1996
upperback -4.54753 8.01505 1.6122
thorax -14.0506 3.68389 -1.07971
lowerneck -2.56735 9.64 2.25347
upperneck 9.18354 12.5404 2.13401
head 3.41519 6.33926 0.782815
lclavicle 1.01504e-14 -1.90833e-14 0
lhumerus 5.69945 12.3937 84.3324
lradius 93.1967 0 0
lwrist -19.2547 0 0
lhand -39.354 387.951 0
lfingers 7.12502 0 0
lthumb -12.345 -662.433 0
rclavicle 1.01504e-14 -1.90833e-14 0
rhumerus -59.2842 51.2051 -111.676
rradius 113.517 0 0
rwrist -83.6829 0 0
rhand 8.11092 -385.97 0
rfingers 7.12502 0 0
rthumb 33.3325 307.101 0
2867
root -6.09649 13.2335 -28.7921 1240.65 -66.9049 -158.762
lfemur -65.9513 44.99 -5.70054
ltibia 77.6062 0 0
lfoot -5.14561 -6.42733 0
ltoes -30.6995 0 0
rfemur -31.5891 -19.0403 22.5251
rtibia 89.2074 0 0
rfoot -40.9058 -29.4312 0
rtoes -12.9365 0 0
lowerback 15.8031 5.58575 1.3015
upperback -4.5629 8.00607 1.62903
thorax -14.0588 3.67124 -1.11532
lowerneck -2.61071 9.64342 2.26251
upperneck 9.24452 12.5432 2.12335
head 3.44616 6.34058 0.783492
lclavicle -6.7065e-14 -3.73715e-14 0
lhumerus 5.67054 12.4029 84.3254
lradius 93.1971 0 0
lwrist -19.2677 0 0
lhand -39.3553 388.095 0
lfingers 7.12502 0 0
lthumb -12.3462 -662.29 0
rclavicle -6.7065e-14 -3.73715e-14 0
rhumerus -59.3131 51.2539 -111.691
rradius 113.523 0 0
rwrist -83.6119 0 0
rhand 8.12225 -385.946 0
rfingers 7.12502 0 0
rthumb 33.3433 307.126 0
